<svg xmlns="http://www.w3.org/2000/svg" viewBox="0 0 312 64">
    <title>
        3Artboard 1
    </title>
    <path d="M104.53 37.43a54.2 54.2 0 0 0-1.29 6.44q-6.7-.21-9.54-.21t-9.42.21q-.28 0-.28-.49t.28-.47a6.7 6.7 0 0 0 2.88-.79 2.53 2.53 0 0 0 .76-2.17V23.48a3.51 3.51 0 0 0-.31-1.72 2 2 0 0 0-1.07-.76 10.19 10.19 0 0 0-2.26-.46Q84 20.5 84 20t.28-.49q1.17 0 2.8.1t2.63.11q1.07 0 2.61-.11t2.78-.1q.28 0 .28.49t-.28.49a10.15 10.15 0 0 0-2.24.46 2 2 0 0 0-1.07.78 3.59 3.59 0 0 0-.3 1.73v17a1.81 1.81 0 0 0 2 2.06H97a5.79 5.79 0 0 0 3.64-1.15 11.55 11.55 0 0 0 2.94-4.28q.07-.14.33-.14a.74.74 0 0 1 .43.14.39.39 0 0 1 .19.34zm28.28-5.6a12.2 12.2 0 0 1-3.57 9.07 14.09 14.09 0 0 1-18.65 0 12.22 12.22 0 0 1-3.59-9.07 12.89 12.89 0 1 1 25.78 0zm-3.85 0a13.53 13.53 0 0 0-2.49-8.43 8.2 8.2 0 0 0-13.11 0 13.6 13.6 0 0 0-2.48 8.43 13.19 13.19 0 0 0 2.46 8.3 8.39 8.39 0 0 0 13.14 0 13.12 13.12 0 0 0 2.52-8.3zM164 20q0 .44-.28.47a7.11 7.11 0 0 0-3 .81 2.52 2.52 0 0 0-.85 2.15l-.39 20.6q0 .35-.42.35a1 1 0 0 1-.56-.28l-18-20.39-.24 16.19a2.12 2.12 0 0 0 0 .26 2.08 2.08 0 0 0 .84 1.88 7.6 7.6 0 0 0 3 .81q.28 0 .28.47t-.28.49q-.91 0-2.5-.1t-2.29-.1q-.87 0-2.36.1t-2.22.1q-.28 0-.28-.49t.32-.47a7.23 7.23 0 0 0 3-.81 2.54 2.54 0 0 0 .86-2.14l.61-16.47v-.16a2.22 2.22 0 0 0-.82-2 7.58 7.58 0 0 0-3.06-.84q-.24 0-.24-.49t.28-.49q.61 0 1.71.1t1.47.11a12.36 12.36 0 0 0 1.47-.11 12.9 12.9 0 0 1 1.51-.1l16.85 18.85V23.48a2.39 2.39 0 0 0-.85-2.09 7.25 7.25 0 0 0-3.14-.87q-.28 0-.28-.47t.28-.49q.95 0 2.52.09t2.28.09q.87 0 2.36-.09t2.22-.09q.2 0 .2.44zm28 13.12q0 .44-.28.47a6.7 6.7 0 0 0-2.88.79 2.53 2.53 0 0 0-.76 2.17v2.06a12 12 0 0 0 .38 3.71 31.83 31.83 0 0 1-5 1.51 22.72 22.72 0 0 1-4.76.59 14.89 14.89 0 0 1-7-1.58 11.37 11.37 0 0 1-4.69-4.51 12.87 12.87 0 0 1-1.68-6.52 12.43 12.43 0 0 1 6.84-11.18 15.67 15.67 0 0 1 7.21-1.63 21.75 21.75 0 0 1 4.24.56 19 19 0 0 0 3.59.49q.23 2.45.81 6 0 .28-.56.28-.37 0-.44-.28-1.54-5.88-8.19-5.88a8.6 8.6 0 0 0-6.9 3.39 12.66 12.66 0 0 0-2.79 8.31 12.36 12.36 0 0 0 2.74 8.13 8.45 8.45 0 0 0 6.76 3.35q5.86 0 5.86-2.9v-4.67a1.41 1.41 0 0 0-.93-1.37 18.89 18.89 0 0 0-4.44-.76q-.28 0-.28-.52t.28-.49q1.17 0 3.46.09t3.27.09q1.05 0 2.78-.09t3-.09q.36-.01.36.48zm25.79 10.25q0 .49-.28.49-.65 0-2.12-.12-1.07-.09-1.42-.09-.51 0-1.59.1t-1.59.1l-5.3-8.65a9 9 0 0 0-1.81-2.29 5.14 5.14 0 0 0-2.77-.51v7.52a3.46 3.46 0 0 0 .31 1.71 2 2 0 0 0 1.09.79 10.28 10.28 0 0 0 2.23.46q.3 0 .3.47t-.28.49q-1.17 0-2.8-.1t-2.62-.1q-1.07 0-2.61.1t-2.78.1q-.28 0-.28-.49t.28-.47a10.1 10.1 0 0 0 2.22-.46 2.07 2.07 0 0 0 1.08-.78 3.45 3.45 0 0 0 .31-1.72V23.48a3.64 3.64 0 0 0-.29-1.71 2 2 0 0 0-1.06-.8 9.79 9.79 0 0 0-2.26-.47q-.28 0-.28-.49t.28-.49q1.17 0 2.78.1t2.61.11q1.07 0 2.63-.11t2.8-.1a9.67 9.67 0 0 1 6 1.65 5.54 5.54 0 0 1 2.14 4.65 5.11 5.11 0 0 1-1.48 3.51 9.52 9.52 0 0 1-4 2.49l5.65 8.61a4.39 4.39 0 0 0 1.8 1.71 8.76 8.76 0 0 0 2.85.76q.22.04.22.48zm-8.93-17.55q0-5.11-4.46-5.11a8 8 0 0 0-2.23.24 1.58 1.58 0 0 0-1 .74 4.39 4.39 0 0 0-.25 1.78v7.79a19.25 19.25 0 0 0 2.55.14 5.53 5.53 0 0 0 4.11-1.33 5.93 5.93 0 0 0 1.25-4.24zm32 12.27a50.42 50.42 0 0 0-2.31 5.78q-6.6-.21-9.4-.21t-9.38.21q-.28 0-.28-.49t.28-.47a10.1 10.1 0 0 0 2.22-.46 2.07 2.07 0 0 0 1.08-.78 3.45 3.45 0 0 0 .31-1.72V23.48a3.64 3.64 0 0 0-.29-1.71A2 2 0 0 0 222 21a9.79 9.79 0 0 0-2.26-.47q-.28 0-.28-.49t.28-.49q4.41.21 9 .21t9-.21a40.22 40.22 0 0 0 1.26 5.33q0 .35-.61.35A.34.34 0 0 1 238 25a5.33 5.33 0 0 0-5.53-4.13h-3.54a1.83 1.83 0 0 0-2 2.1v7.79h4.41a2.86 2.86 0 0 0 2.37-.81 6.06 6.06 0 0 0 .87-2.85q0-.28.49-.28t.49.28q0 .88-.1 2.21t-.1 2.08q0 .82.1 2.1t.1 2.24q0 .28-.49.28t-.49-.28a6.42 6.42 0 0 0-.92-3 2.75 2.75 0 0 0-2.32-.86h-4.41v8.61a1.81 1.81 0 0 0 2 2.06h3.82a7.42 7.42 0 0 0 4.13-1.36 8.31 8.31 0 0 0 3-3.39.29.29 0 0 1 .3-.16.76.76 0 0 1 .44.13.38.38 0 0 1 .18.33zm25.44 5.28q0 .49-.28.49-1.21 0-2.73-.1-1.31-.1-2.24-.1t-2.64.1q-1.66.1-2.84.1-.28 0-.28-.49t.21-.49a6 6 0 0 0 2.24-.41 1.12 1.12 0 0 0 .68-1.06A5 5 0 0 0 258 40l-2-5.86h-7.21l-2 5.42a5.47 5.47 0 0 0-.38 1.68q0 1.54 2.83 1.68.21 0 .21.49t-.28.49q-1.05 0-2.33-.1t-2.15-.1q-.75 0-1.89.1t-2 .1q-.26 0-.26-.44t.4-.53a4.34 4.34 0 0 0 2.3-.81 7.3 7.3 0 0 0 1.76-2.73l8.19-20.11a.46.46 0 0 1 .49-.28q.42 0 .52.26l7.23 20.13a5.36 5.36 0 0 0 1.65 2.5 5.57 5.57 0 0 0 2.79 1q.37.05.37.49zM255.65 33l-3.08-9-3.33 9zm38-1.12a11.25 11.25 0 0 1-3.61 8.7q-3.61 3.31-9.75 3.31-.77 0-3.11-.07t-3.22-.07q-3.26 0-6.34.14-.28 0-.28-.49t.28-.47a10.1 10.1 0 0 0 2.22-.46 2.07 2.07 0 0 0 1.08-.78 3.45 3.45 0 0 0 .31-1.72V23.55a3.64 3.64 0 0 0-.29-1.71 2 2 0 0 0-1.06-.8 9.79 9.79 0 0 0-2.26-.47q-.28 0-.28-.49t.28-.49q2 .14 6.34.14l3.22-.05 3.11-.05a13.64 13.64 0 0 1 9.67 3.42 11.48 11.48 0 0 1 3.65 8.81zm-3.85 0a11.7 11.7 0 0 0-2.8-7.94 8.63 8.63 0 0 0-6.82-3.16h-.11l-3.29.07q-2.07.07-2.07 2v17.76a1.79 1.79 0 0 0 2.07 2l3.29.11a8.85 8.85 0 0 0 6.93-3.11 11.18 11.18 0 0 0 2.76-7.75zm21.91 5a7.47 7.47 0 0 1-2.07 5.54 7.56 7.56 0 0 1-5.64 2.01 15.28 15.28 0 0 1-3.73-.56 13.19 13.19 0 0 0-3.24-.53q-.11-3-.42-5.95 0-.28.52-.28a.42.42 0 0 1 .45.28A9.84 9.84 0 0 0 300 42a5.94 5.94 0 0 0 4.13 1.33 4.31 4.31 0 0 0 3.28-1.22 4.78 4.78 0 0 0 1.16-3.43 4 4 0 0 0-1-2.63 17.71 17.71 0 0 0-4.32-3.14 17.93 17.93 0 0 1-5-3.71 5.4 5.4 0 0 1-1.17-3.38 6.34 6.34 0 0 1 2.15-4.82 7.53 7.53 0 0 1 5.35-2 14 14 0 0 1 2.82.33 13.39 13.39 0 0 0 2.57.3q.21 3.08.56 5.43 0 .28-.45.28t-.54-.28a7.52 7.52 0 0 0-1.75-3.78 4.41 4.41 0 0 0-3.24-1.15 4 4 0 0 0-4.27 4.27 3.59 3.59 0 0 0 1 2.37 18.27 18.27 0 0 0 4.21 3 19.12 19.12 0 0 1 5 3.75 5.21 5.21 0 0 1 1.18 3.31z"/>
    <path d="M32 2A30 30 0 1 1 2 32 30 30 0 0 1 32 2" fill="#fff"/>
    <path d="M36.6 45a5.53 5.53 0 0 0 3.2-1 12.31 12.31 0 0 0 3.5-5.2c0-.1.2-.2.4-.2a.76.76 0 0 1 .5.2.52.52 0 0 1 .2.4 72 72 0 0 0-1.6 7.8H20.3q-.3 0-.3-.6t.3-.6a11.12 11.12 0 0 0 3.7-.9 3 3 0 0 0 1-2.5V22a4.38 4.38 0 0 0-.4-2.1 3.25 3.25 0 0 0-1.3-1 13.1 13.1 0 0 0-2.7-.6q-.3 0-.3-.6t.3-.6h12.7q.3 0 .3.6t-.3.6a13.1 13.1 0 0 0-2.7.6 3.32 3.32 0 0 0-1.3.9A6.08 6.08 0 0 0 29 22v20.7c0 1.2.7 2.5 1.8 2.5s4.5-.1 5.8-.2zM32 6a26 26 0 1 0 26 25.9A25.86 25.86 0 0 0 32 6z" fill="#c00"/>
    <path d="M32 61a29 29 0 1 1 29-29 29 29 0 0 1-29 29m0-61a32 32 0 1 0 32 32A32 32 0 0 0 32 0" fill="#c00"/>
</svg>
